<svg id="img__logo--2" xmlns="http://www.w3.org/2000/svg" width="40" height="40" viewBox="0 0 40 40">
  <path id="Path_93" data-name="Path 93" d="M25.556,11.685A10,10,0,0,0,20,10V0A20,20,0,1,1,0,20H10a10,10,0,1,0,15.556-8.315Z" fill-rule="evenodd"/>
  <path id="Path_94" data-name="Path 94" d="M10,0a10,10,0,0,1-.761,3.827A10,10,0,0,1,7.071,7.071,10,10,0,0,1,3.827,9.239,10,10,0,0,1,0,10V20a20,20,0,0,0,7.654-1.522,20,20,0,0,0,6.488-4.335,20,20,0,0,0,4.335-6.488A20,20,0,0,0,20,0Z" fill-rule="evenodd"/>
</svg>
