<svg xmlns="http://www.w3.org/2000/svg" width="40" height="40" viewBox="0 0 40 40">
  <path id="img__logo--6" d="M18.952,11.073A91.519,91.519,0,0,1,18.143,0h3.714a91.607,91.607,0,0,1-.807,11.025c-.32,2.753-.627,5.386-.684,8.09,1.865-1.945,3.5-4.008,5.205-6.169a91.513,91.513,0,0,1,7.257-8.4l2.626,2.626A91.653,91.653,0,0,1,27.088,14.4l0,0c-2.172,1.719-4.249,3.364-6.2,5.235,2.694-.057,5.306-.362,8.042-.681A91.5,91.5,0,0,1,40,18.143v3.714a91.644,91.644,0,0,1-11.025-.807h0c-2.752-.32-5.384-.626-8.087-.683,1.944,1.864,4.006,3.494,6.165,5.2l0,0a91.5,91.5,0,0,1,8.4,7.257l-2.626,2.626A91.6,91.6,0,0,1,25.6,27.089l0-.007,0-.006c-1.717-2.168-3.36-4.243-5.228-6.191.057,2.7.363,5.337.684,8.09A91.608,91.608,0,0,1,21.857,40H18.143a91.521,91.521,0,0,1,.809-11.073v-.006c.319-2.734.623-5.345.68-8.037-1.868,1.949-3.511,4.023-5.228,6.191l0,.006-.005.007a91.61,91.61,0,0,1-7.225,8.366L4.545,32.829a91.5,91.5,0,0,1,8.4-7.257l0,0c2.159-1.708,4.221-3.339,6.165-5.2-2.7.057-5.337.363-8.09.684A91.643,91.643,0,0,1,0,21.857V18.143a91.5,91.5,0,0,1,11.073.809c2.736.319,5.348.624,8.042.681-1.952-1.872-4.031-3.517-6.2-5.237A91.642,91.642,0,0,1,4.545,7.171L7.171,4.545a91.519,91.519,0,0,1,7.257,8.4c1.709,2.161,3.34,4.223,5.205,6.168-.057-2.692-.361-5.3-.68-8.037Z"/>
</svg>
