<svg xmlns="http://www.w3.org/2000/svg" width="1395.31" height="429" viewBox="0 0 1395.31 429">
  <g id="logo__foley" transform="translate(-3881.36 -6970)">
    <path id="Path_44" data-name="Path 44" d="M41.36,0H93.28V-137.72H246.4v-44H93.28v-94.16H267.96v-44.88H41.36ZM286.52-124.52C286.52-47.08,333.6,4.4,407.08,4.4c72.6,0,119.68-51.04,119.68-128.92,0-78.32-47.08-129.8-119.68-129.8C334.04-254.32,286.52-202.84,286.52-124.52Zm51.04,0c0-54.56,25.52-87.12,69.52-87.12,43.12,0,68.64,31.68,68.64,86.68,0,54.56-25.52,86.68-69.08,86.68S337.56-69.96,337.56-124.52ZM573.92,0h51.04V-347.6H573.92ZM791.8,4.4c57.2,0,97.24-28.16,109.56-71.72l-44.88-11c-8.8,25.52-30.36,41.8-63.8,41.8-40.48,0-68.2-25.08-68.64-75.24H903.12c5.72-84.48-37.4-142.56-114.4-142.56-72.16,0-117.04,51.48-117.04,129.8C671.68-42.68,720.96,4.4,791.8,4.4ZM724.04-146.96c1.76-43.56,27.72-67.76,63.8-67.76,37.84,0,62.48,26.84,62.92,67.76ZM970.32,77c41.8,0,68.2-18.48,85.36-65.56l95.92-261.36h-51.04l-40.48,116.16c-10.56,29.04-16.72,47.96-25.08,73.92-7.92-26.4-19.36-58.52-24.2-73.48l-40.48-116.6H914.88L1009.04-9.68l-5.72,14.52c-7.92,21.12-19.36,29.48-42.68,29.48-7.04,0-12.32-.88-16.72-2.64H940.4V72.6C947.88,75.24,960.64,77,970.32,77Z" transform="translate(3840 7322)"/>
    <path id="Path_45" data-name="Path 45" d="M143.021-115.079c69.635,0,122.949-47.33,122.949-118.6C265.97-304.67,212.656-352,143.021-352S19.8-304.67,19.8-233.4C19.8-162.408,73.386-115.079,143.021-115.079Zm0-25.569c-56.306,0-94.388-37.265-94.388-92.756,0-57.938,40.8-93.3,94.388-93.3,55.762,0,94.388,36.993,94.388,93.028C237.409-175.737,196.335-140.648,143.021-140.648ZM94.6-174.921H125.34v-42.434h24.753c10.064,0,13.873,6.256,13.873,14.145v16.049c0,5.168.544,9.52,2.176,12.24h32.913v-4.624c-2.72-.816-4.08-3.536-4.08-9.248v-17.953c0-12.784-4.352-19.313-18.769-22.849,13.057-4.08,21.761-14.961,21.489-29.377,0-21.489-16.321-34.273-42.434-34.273H94.6Zm56.306-93.028c9.248,0,15.5,4.08,15.5,13.057,0,8.432-4.9,13.6-15.5,13.6H125.34v-26.657Z" transform="translate(5010.7 7322)"/>
  </g>
</svg>
