<svg width="2465" height="361" viewBox="0 0 2465 361" fill="none" xmlns="http://www.w3.org/2000/svg">
<path d="M2406.33 352.729C2353.34 331.254 2310.12 289.906 2260.43 260.834C2206.52 229.304 2131.78 214.822 2085.5 256.683C2073.36 267.671 2061.12 283.053 2044.84 281.08C2031.53 279.468 2022.58 266.167 2019.73 253.119C2012.96 221.982 2031.42 189.73 2057.1 170.735C2064.41 165.322 2072.22 160.761 2080.37 156.819C2094.95 149.762 2088.25 127.807 2072.21 130.115C2008.7 139.259 1947.03 179.825 1893.05 220.694C1887.8 224.667 1885.98 231.73 1888.7 237.71C1897.22 256.435 1892.25 280.692 1879.21 297.384C1863.89 317.015 1840.11 328.116 1816.49 336.144C1776.92 349.596 1735.09 356.428 1693.29 356.271C1674.56 356.201 1652.75 352.923 1643.5 336.705C1631.73 316.082 1649.07 290.542 1668.79 277.236C1688.51 263.929 1712.78 254.354 1723.94 233.396C1734.4 213.749 1728.84 187.045 1711.39 173.167C1696.46 161.289 1674.25 159.946 1657.55 168.896C1653.05 171.307 1650.28 176.04 1650.26 181.13C1650.18 201.564 1632.87 219.81 1614.44 230.453C1535.21 276.2 1429.25 241.602 1345.75 275.327C1338.62 278.206 1334.89 286.256 1337.66 293.405C1342.61 306.232 1333.91 326.305 1318.71 330.672C1298.43 336.495 1277.63 324.962 1259.69 313.882C1226.03 293.087 1192.37 272.286 1158.71 251.491C1105.1 218.375 1036.71 184.796 982.77 217.351C964.748 228.226 950.624 245.727 930.701 252.564C902.371 262.285 872.19 247.808 844.234 237.068C816.272 226.328 780.195 220.888 760.067 242.999C752.114 251.739 748.184 263.487 740.431 272.405C724.666 290.542 697.706 292.774 673.642 293.691C538.473 298.851 396.39 302.571 276.06 241.031C246.983 226.161 203.559 211.506 188.444 240.373C180.767 255.038 186.793 272.744 186.706 289.286C186.576 314.821 168.884 338.468 145.654 348.626C134.989 353.29 123.555 343.833 126.159 332.527C141.188 267.137 118.775 193.736 68.1732 149.066C50.3837 133.36 29.5789 119.563 14.9564 100.639C2.05557 83.9408 -13.3843 50.3672 20.5326 56.6808C64.9087 64.9408 92.589 127.985 129.684 150.479C159.454 168.53 195.877 170.881 230.687 172.719C299.929 176.369 369.181 179.874 438.438 183.227C466.947 184.608 500.274 183.546 520.83 166.319C528.192 160.146 527.429 148.721 519.341 143.524C475.208 115.169 408.555 138.369 354.667 123.947C345.653 121.531 336.406 117.601 331.171 109.901C317.523 89.8285 342.811 62.9243 367.151 62.5415C391.491 62.1587 413.373 76.3009 436.76 83.0242C499.153 100.962 562.569 65.4584 623.468 42.9915C638.561 37.422 654.83 32.5587 670.551 35.9878C686.272 39.4169 700.63 54.0227 698.155 69.8633C691.838 110.344 615.326 83.1536 593.27 117.735C584.603 131.322 588.463 149.481 582.53 164.454C571.994 191.018 537.823 196.507 510.208 204.233C488.461 210.32 464.868 228.242 462.518 247.846C461.495 256.408 468.609 263.784 477.26 263.395C542.706 260.478 607.963 253.335 672.484 242.034C676.939 241.252 680.75 238.389 682.737 234.345C684.74 230.275 686.175 225.924 687.003 221.459C688.6 212.838 681.931 204.815 673.133 204.815C659.009 204.815 644.966 201.678 636.591 190.932C622.353 172.66 636.358 143.432 658.051 135.167C679.743 126.907 704.268 133.9 725.192 143.939C746.116 153.978 765.962 167.16 788.673 172.024C802.548 174.994 818.583 174.11 828.783 164.287C835.777 157.553 838.831 147.783 840.877 138.315C846.524 112.209 846.561 85.0191 853.805 59.3119C861.054 33.5993 877.95 8.11853 903.871 1.27118C929.786 -5.57617 962.074 16.2491 957.153 42.5009C951.36 73.4272 902.739 91.7425 913.215 121.423C922.083 146.554 959.161 139.636 983.907 129.532C1056.21 100.019 1134.52 85.1755 1212.66 86.1783C1229.28 86.394 1249.96 90.3622 1254.27 106.359C1259.68 126.47 1233.94 140.1 1213.3 143.459C1182.48 148.473 1150.94 149.104 1119.93 145.367C1107.23 143.836 1099.07 158.475 1107.19 168.314C1130.68 196.787 1166.72 215.308 1203.48 223.125C1251.14 233.267 1300.58 228.167 1349.05 223.023C1409.62 216.596 1470.19 210.169 1530.76 203.742C1543.06 202.438 1547.97 187.109 1538.6 179.07C1522.19 164.993 1498.95 157.709 1476.83 155.763C1445.19 152.975 1413.14 158.232 1381.65 154.107C1346.47 149.497 1306.83 114.35 1326.43 84.8897C1342.1 61.3284 1378.13 68.8066 1404.61 78.9805L1538.22 130.325C1544.36 132.686 1551.36 130.546 1555.03 125.111C1585.53 79.9672 1641.98 53.0576 1696.46 58.7458C1751.04 64.4447 1800.73 102.542 1821.1 153.137C1823.59 159.321 1830.02 162.998 1836.62 161.909C1901.12 151.261 1950.73 93.7805 2013.73 72.3488C2076.97 50.8309 2109.2 60.924 2173.73 79.8216C2179.14 81.4068 2189.1 83.806 2208.74 91.0685C2214.35 93.1443 2219.63 96.0126 2224.44 99.5765C2227.81 102.089 2230.01 105.852 2230.6 110.009C2231.06 113.363 2231.9 115.697 2237.34 114.657C2273.67 107.712 2310.85 105.189 2347.79 107.173C2355.86 107.605 2364.43 108.446 2370.81 113.39C2383.31 123.089 2380.17 144.262 2368.44 154.873C2356.7 165.484 2339.89 168.088 2324.08 169.209C2296.7 171.15 2269.11 170.05 2241.97 165.947C2230.43 164.206 2221.78 176.423 2227.4 186.597C2246.65 221.432 2294.28 239.742 2335.96 249.55C2386.59 261.46 2446.38 278.174 2462.72 327.361C2465.08 334.462 2466.26 342.506 2462.98 349.241C2456 363.572 2435.21 362.671 2420.02 357.711C2415.38 356.196 2410.82 354.519 2406.34 352.702L2406.33 352.729Z" fill="#C1FF55"/>
</svg>
